<?xml version="1.0" encoding="UTF-8"?>
<svg width="210px" height="37px" viewBox="0 0 210 37" version="1.1" xmlns="http://www.w3.org/2000/svg" xmlns:xlink="http://www.w3.org/1999/xlink">
    <!-- Generator: Sketch 42 (36781) - http://www.bohemiancoding.com/sketch -->
    <title>dc-logo</title>
    <desc>Created with Sketch.</desc>
    <defs></defs>
    <g id="Page-1" stroke="none" stroke-width="1" fill="none" fill-rule="evenodd">
        <g id="dc-logo" fill-rule="nonzero" fill="#FFFFFF">
            <g id="Ebene_2">
                <g id="Ebene_2-2">
                    <g id="Center" transform="translate(122.329352, 9.703178)">
                        <path d="M10.1952678,0 C4.30405255,0 0.218321506,4.31444881 0.218321506,10.493294 C0.218321506,16.6721391 4.32137965,20.9242104 10.1952678,20.9242104 C12.437395,20.9242104 14.9879447,20.1722141 16.5369877,19.0494178 L16.67907,18.9454551 L16.67907,16.9493728 L16.1315335,17.3478962 C14.4021796,18.5863887 12.3184433,19.2319336 10.1918024,19.1880346 C5.29516288,19.1880346 2.00301318,15.6879597 2.00301318,10.4828977 C2.00301318,5.27783577 5.29516288,1.71191784 10.1918024,1.71191784 C12.3222838,1.67858603 14.4062301,2.33635438 16.1315335,3.58671046 L16.67907,3.98523384 L16.67907,1.99954776 L16.5369877,1.89558514 C14.9636867,0.75546172 12.4131371,0 10.1952678,0 Z" id="Shape"></path>
                        <path d="M33.1432839,12.4200679 L33.1952652,12.132438 C33.2617284,11.6977408 33.2964744,11.2587837 33.2992278,10.8190435 C33.2992278,7.57887514 30.7001623,5.13575352 27.2520686,5.13575352 C23.911403,5.13575352 20.4459823,8.03631068 20.4459823,12.8913651 C20.4459823,17.576614 23.433175,20.8618328 27.7233659,20.8618328 C29.8615304,20.8618328 31.7640464,20.2588496 33.0843717,19.1672421 L33.2125923,19.0632794 L33.2125923,17.157298 L32.6407979,17.6216644 C31.4024662,18.5880699 29.8893708,19.1365215 28.3194182,19.1880346 C26.3926443,19.1880346 24.8782554,18.6127748 23.8143713,17.4726513 C22.7123675,16.284012 22.1613656,14.4923895 22.2514665,12.4166025 L33.1432839,12.4200679 Z M22.4593918,10.8606286 C23.2183189,7.84224712 25.4639115,6.75757043 27.3560313,6.75757043 C29.7471716,6.75757043 31.5491903,8.38978359 31.5491903,10.5695332 L31.5491903,10.8779557 L22.4593918,10.8606286 Z" id="Shape"></path>
                        <path d="M44.3989704,5.09070306 C42.222799,5.14085547 40.1954757,6.20645042 38.9201402,7.97046768 L38.9201402,5.08723763 L37.2290149,5.08723763 L37.2290149,20.7925244 L39.0206374,20.7925244 L39.0206374,11.7997576 C39.0206374,9.02742101 41.8553516,6.81301716 44.2187685,6.81301716 C46.9287276,6.81301716 48.0861781,8.33433686 48.0861781,11.8967894 L48.0861781,20.7925244 L49.8778006,20.7925244 L49.8778006,11.7824305 C49.8570081,7.27738354 48.0723164,5.09070306 44.3989704,5.09070306 Z" id="Shape"></path>
                        <polygon id="Shape" points="57.927973 1.08467669 56.0878345 1.08467669 56.0878345 5.08030679 52.8407353 5.08030679 52.8407353 6.78182837 56.0878345 6.78182837 56.0878345 20.657373 57.927973 20.657373 57.927973 6.78182837 61.1750722 6.78182837 61.1750722 5.08030679 57.927973 5.08030679"></polygon>
                        <path d="M76.0382617,12.3646212 L76.090243,12.0769913 C76.1567306,11.6422969 76.1914767,11.203338 76.1942056,10.7635968 C76.1942056,7.52689383 73.5986055,5.08377221 70.1539773,5.08377221 C66.8133117,5.08377221 63.3582872,7.98432937 63.3582872,12.8359184 C63.3582872,17.5142364 66.3420145,20.7855935 70.6148783,20.7855935 C72.7495774,20.7855935 74.6520934,20.1860758 75.9689533,19.0944682 L76.0971739,18.9905056 L76.0971739,17.0983859 L75.5253794,17.5627523 C74.2882303,18.5288931 72.7763139,19.0773572 71.2074652,19.1291224 C69.2806913,19.1291224 67.7697678,18.5538626 66.7024182,17.4172046 C65.6004145,16.2285653 65.0494126,14.4404082 65.1429789,12.3646212 L76.0382617,12.3646212 Z M65.3613004,10.8086473 C66.1167621,7.79026581 68.3623548,6.70905454 70.2510091,6.70905454 C72.638684,6.70905454 74.4372373,8.3412677 74.4372373,10.5036902 L74.4372373,10.8121127 L65.3613004,10.8086473 Z" id="Shape"></path>
                        <path d="M87.2281052,5.0976339 C85.2352452,5.19844453 83.3875257,6.17046158 82.1755218,7.7556116 L82.1512639,5.08377221 L80.4670694,5.08377221 L80.4670694,20.657373 L82.2552265,20.657373 L82.2552265,11.5086623 C82.2863045,10.3045734 82.8099038,9.16593286 83.7037724,8.35859481 C84.6409608,7.44757272 85.9118514,6.96252869 87.217709,7.01747698 L87.588509,7.03826951 L87.588509,5.08723763 L87.2281052,5.0976339 Z" id="Shape"></path>
                    </g>
                    <g id="Drupal" transform="translate(31.881871, 9.356636)">
                        <path d="M6.55657602,0.315353287 L0,0.315353287 L0,21.2395637 L6.58429939,21.2395637 C13.8616829,21.2395637 18.2073205,17.3271037 18.2073205,10.7774585 C18.2073205,4.22781329 13.8339596,0.315353287 6.55657602,0.315353287 Z M14.9013091,10.7774585 C14.9013091,15.8404382 12.1047146,18.4013841 6.58429939,18.4013841 L3.15353287,18.4013841 L3.15353287,3.15353287 L6.58429939,3.15353287 C12.10818,3.14660202 14.9013091,5.71447879 14.9013091,10.7774585 Z" id="Shape"></path>
                        <path d="M23.3915899,8.25463218 L23.3118853,5.54467317 L20.6192534,5.54467317 L20.6192534,21.2603562 L23.5995152,21.2603562 L23.5995152,12.0284754 C23.602163,11.1055688 24.0273756,10.2347131 24.7535003,9.66505842 C25.9009481,8.77332688 27.3808573,8.42771934 28.8045771,8.71899856 L29.0610183,8.76404903 L29.0610183,5.54467317 L28.8461622,5.54467317 C26.7058367,5.55211731 24.6904149,6.553426 23.3915899,8.25463218 L23.3915899,8.25463218 Z" id="Shape"></path>
                        <path d="M41.8345591,14.5547671 C41.8345591,16.7310513 39.3359907,18.5989131 37.2913925,18.5989131 C35.0700578,18.5989131 34.1239979,17.3374999 34.1239979,14.3849615 L34.1239979,5.54467317 L31.1437361,5.54467317 L31.1437361,14.6067484 C31.1437361,18.9593168 33.0254596,21.2603562 36.5879121,21.2603562 C38.7467777,21.2172761 40.7622254,20.1704734 42.0390189,18.4291075 L41.990503,21.2603562 L44.8113555,21.2603562 L44.8113555,5.54467317 L41.8310937,5.54467317 L41.8345591,14.5547671 Z" id="Shape"></path>
                        <path d="M56.0705074,5.54467317 C53.9346988,5.5260382 51.9071265,6.4830421 50.5639539,8.14373872 L50.5362305,5.54467317 L47.8401332,5.54467317 L47.8401332,27.3941509 L50.820395,27.3941509 L50.820395,18.9731785 C52.1663382,20.4443484 54.0731333,21.2755801 56.067042,21.2603562 C60.0592067,21.2603562 63.1884816,17.7949355 63.1884816,13.400782 C63.1884816,9.00662848 60.0661375,5.54467317 56.0705074,5.54467317 Z M60.2116852,13.4042474 C60.2116852,16.5716419 58.2467917,18.7860458 55.43287,18.7860458 C52.6189484,18.7860458 50.6540548,16.5751074 50.6540548,13.4042474 C50.6540548,10.2333874 52.6224138,8.02244899 55.4467317,8.02244899 C58.2710496,8.02244899 60.2116852,10.2368528 60.2116852,13.4042474 Z" id="Shape"></path>
                        <path d="M77.8680038,8.14373872 C76.5248312,6.4830421 74.497259,5.5260382 72.3614503,5.54467317 C68.3692856,5.54467317 65.2400107,9.0100939 65.2400107,13.4042474 C65.2400107,17.7984009 68.3588894,21.2638216 72.3614503,21.2638216 C74.4971468,21.2819457 76.5245082,20.3250414 77.8680038,18.6647561 L77.8680038,21.2776833 L80.5883591,21.2776833 L80.5883591,5.54467317 L77.8784001,5.54467317 L77.8680038,8.14373872 Z M73.0164148,8.02244899 C75.8303365,8.02244899 77.79523,10.2333874 77.79523,13.4042474 C77.79523,16.5751074 75.8095439,18.7825804 72.9990877,18.7825804 C70.1886315,18.7825804 68.2202725,16.5716419 68.2202725,13.400782 C68.2202725,10.229922 70.1851661,8.02244899 72.9990877,8.02244899 L73.0164148,8.02244899 Z" id="Shape"></path>
                        <rect id="Rectangle-path" x="83.9636789" y="0.315353287" width="2.98026183" height="20.9588646"></rect>
                    </g>
                    <path d="M16.2874774,0 C16.2874774,0 -10.7428043,25.2767788 5.54467317,34.7685662 C9.88625937,37.30902 15.2352887,37.4139801 19.6731935,35.0457999 C37.1250523,25.508962 12.7631446,8.69474062 16.2874774,0 Z M17.9058289,30.0625248 C14.7338115,31.7238407 10.9328642,31.6493379 7.82838543,29.8649959 C-3.78077402,23.2183189 14.5270437,5.1981311 14.5270437,5.1981311 C13.334939,11.7824305 30.3432239,23.3742628 17.923156,30.0625248 L17.9058289,30.0625248 Z" id="Shape"></path>
                </g>
            </g>
        </g>
    </g>
</svg>